<svg preserveAspectRatio="none" width="100%" height="100%" overflow="visible" style="display: block;" viewBox="0 0 14.1667 14.1667" fill="none" xmlns="http://www.w3.org/2000/svg">
<path id="Vector" d="M1.50646 14.1667C1.08549 14.1667 0.729167 14.0208 0.4375 13.7292C0.145833 13.4375 0 13.0812 0 12.6602V10.2083C0 10.031 0.059861 9.8825 0.179583 9.76292C0.299167 9.64319 0.447639 9.58333 0.625 9.58333C0.802361 9.58333 0.950833 9.64319 1.07042 9.76292C1.19014 9.8825 1.25 10.031 1.25 10.2083V12.6602C1.25 12.7244 1.27674 12.7831 1.33021 12.8365C1.38354 12.8899 1.44229 12.9167 1.50646 12.9167H3.95833C4.13569 12.9167 4.28417 12.9765 4.40375 13.0962C4.52347 13.2158 4.58333 13.3643 4.58333 13.5417C4.58333 13.719 4.52347 13.8675 4.40375 13.9871C4.28417 14.1068 4.13569 14.1667 3.95833 14.1667H1.50646ZM12.6602 14.1667H10.2083C10.031 14.1667 9.8825 14.1068 9.76292 13.9871C9.64319 13.8675 9.58333 13.719 9.58333 13.5417C9.58333 13.3643 9.64319 13.2158 9.76292 13.0962C9.8825 12.9765 10.031 12.9167 10.2083 12.9167H12.6602C12.7244 12.9167 12.7831 12.8899 12.8365 12.8365C12.8899 12.7831 12.9167 12.7244 12.9167 12.6602V10.2083C12.9167 10.031 12.9765 9.8825 13.0962 9.76292C13.2158 9.64319 13.3643 9.58333 13.5417 9.58333C13.719 9.58333 13.8675 9.64319 13.9871 9.76292C14.1068 9.8825 14.1667 10.031 14.1667 10.2083V12.6602C14.1667 13.0812 14.0208 13.4375 13.7292 13.7292C13.4375 14.0208 13.0812 14.1667 12.6602 14.1667ZM0 3.95833V1.50646C0 1.08549 0.145833 0.729167 0.4375 0.4375C0.729167 0.145833 1.08549 0 1.50646 0H3.95833C4.13569 0 4.28417 0.059861 4.40375 0.179583C4.52347 0.299167 4.58333 0.447639 4.58333 0.625C4.58333 0.802361 4.52347 0.950833 4.40375 1.07042C4.28417 1.19014 4.13569 1.25 3.95833 1.25H1.50646C1.44229 1.25 1.38354 1.27674 1.33021 1.33021C1.27674 1.38354 1.25 1.44229 1.25 1.50646V3.95833C1.25 4.13569 1.19014 4.28417 1.07042 4.40375C0.950833 4.52347 0.802361 4.58333 0.625 4.58333C0.447639 4.58333 0.299167 4.52347 0.179583 4.40375C0.059861 4.28417 0 4.13569 0 3.95833ZM12.9167 3.95833V1.50646C12.9167 1.44229 12.8899 1.38354 12.8365 1.33021C12.7831 1.27674 12.7244 1.25 12.6602 1.25H10.2083C10.031 1.25 9.8825 1.19014 9.76292 1.07042C9.64319 0.950833 9.58333 0.802361 9.58333 0.625C9.58333 0.447639 9.64319 0.299167 9.76292 0.179583C9.8825 0.059861 10.031 0 10.2083 0H12.6602C13.0812 0 13.4375 0.145833 13.7292 0.4375C14.0208 0.729167 14.1667 1.08549 14.1667 1.50646V3.95833C14.1667 4.13569 14.1068 4.28417 13.9871 4.40375C13.8675 4.52347 13.719 4.58333 13.5417 4.58333C13.3643 4.58333 13.2158 4.52347 13.0962 4.40375C12.9765 4.28417 12.9167 4.13569 12.9167 3.95833Z" fill="var(--fill-0, #535862)"/>
</svg>
